<?xml version="1.0" standalone="no"?>
<!DOCTYPE svg PUBLIC "-//W3C//DTD SVG 20010904//EN"
 "http://www.w3.org/TR/2001/REC-SVG-20010904/DTD/svg10.dtd">
<svg version="1.0" xmlns="http://www.w3.org/2000/svg"
 width="260.000000pt" height="260.000000pt" viewBox="0 0 260.000000 260.000000"
 preserveAspectRatio="xMidYMid meet">
<metadata>
Created by potrace 1.11, written by Peter Selinger 2001-2013
</metadata>
<g transform="translate(0.000000,260.000000) scale(0.100000,-0.100000)"
fill="#000000" stroke="none">
<path d="M455 2146 c-161 -51 -313 -208 -372 -386 -30 -91 -26 -227 10 -322
63 -165 192 -296 342 -347 58 -19 82 -20 829 -19 741 0 770 -1 794 -19 35 -26
47 -66 34 -112 -22 -72 44 -68 -1032 -67 -531 1 -972 0 -980 -2 -14 -3 -16
-33 -16 -223 l-1 -219 1046 0 1046 1 67 23 c81 29 116 52 190 127 167 169 203
438 88 644 -69 124 -182 223 -304 265 -53 19 -87 20 -826 20 -534 0 -778 3
-792 11 -23 12 -48 67 -43 95 2 10 4 27 4 37 1 10 12 28 24 41 l24 24 974 0
c536 1 981 1 990 1 14 1 16 28 16 221 l0 220 -1036 -1 c-806 0 -1045 -3 -1076
-13z"/>
</g>
</svg>
